<svg width="28" height="28" fill="none" xmlns="http://www.w3.org/2000/svg"><circle cx="14" cy="14" r="13" stroke="#fff"/><path d="M16.425 8h-4.85A3.579 3.579 0 008 11.575v4.85A3.579 3.579 0 0011.575 20h4.85A3.579 3.579 0 0020 16.425v-4.85A3.579 3.579 0 0016.425 8zm2.368 8.425a2.368 2.368 0 01-2.368 2.368h-4.85a2.368 2.368 0 01-2.368-2.368v-4.85a2.368 2.368 0 012.368-2.368h4.85a2.368 2.368 0 012.368 2.368v4.85z" fill="#fff"/><path d="M14 10.896A3.107 3.107 0 0010.896 14 3.107 3.107 0 0014 17.104 3.107 3.107 0 0017.104 14 3.107 3.107 0 0014 10.896zm0 5a1.896 1.896 0 110-3.792 1.896 1.896 0 010 3.793zm3.11-4.233a.744.744 0 100-1.487.744.744 0 000 1.487z" fill="#fff"/></svg>